<svg id="Lag_1" data-name="Lag 1" xmlns="http://www.w3.org/2000/svg" viewBox="0 0 662.32 951"><defs><style>.cls-1{fill:#f0eaee;stroke:#f0eaee;stroke-miterlimit:10;}</style></defs><title>Guide</title><path class="cls-1" d="M875,731.26V77.6A34.6,34.6,0,0,0,840.4,43H304.32a90.63,90.63,0,0,0-90.63,90.63V825.46a90.63,90.63,0,0,0,90.63,90.63h.39v63a13.94,13.94,0,0,0,22.17,11.24l38.2-27.92,38.21,27.92a13.94,13.94,0,0,0,8.23,2.69,14.1,14.1,0,0,0,9.18-3.42,14.3,14.3,0,0,0,4.76-10.9V916.09H860.39A14.61,14.61,0,0,0,875,901.48V795.92a6.13,6.13,0,0,0-1.91-4.47c-11.93-11.12-26-2.86-26,8.67v79.49a6.76,6.76,0,0,1-6.76,6.76H425.46v-35.3H785c6.23,0,12-4.09,13.36-10.17,1.9-8.42-4.93-15.84-13.61-15.84H281.28c-6.2,0-11.91,4.07-13.31,10.11-2,8.44,4.89,15.9,13.59,15.9h23.15v35.3h-.38a62.79,62.79,0,0,1-62.78-62.79V808a62.78,62.78,0,0,1,62.78-62.78H861.08A13.93,13.93,0,0,0,875,731.26ZM397.59,852.93v98.26l-24.27-17.74a14,14,0,0,0-16.47,0l-24.27,17.74V852.93Zm-156-110.27v-609a62.78,62.78,0,0,1,62.78-62.78H840.38a6.76,6.76,0,0,1,6.76,6.76v639.7H304.32A90.32,90.32,0,0,0,241.55,742.66Z" transform="translate(-213.19 -42.5)"/><path class="cls-1" d="M320.08,769.33A13.93,13.93,0,0,0,306.26,785c.86,7.06,7.22,12.18,14.34,12.18H609.43c7.12,0,13.49-5.12,14.35-12.18A13.94,13.94,0,0,0,610,769.33Z" transform="translate(-213.19 -42.5)"/><path class="cls-1" d="M675.3,769.33A13.94,13.94,0,0,0,661.48,785c.86,7.06,7.23,12.18,14.35,12.18h108c7.12,0,13.49-5.12,14.35-12.18a14,14,0,0,0-13.83-15.69Z" transform="translate(-213.19 -42.5)"/><path class="cls-1" d="M399.25,375.27H373.56c-5.6,0-7.24,5.06-7.24,10.12s1.45,10.31,7.24,10.31h13.93c4.16,0,5.24,1.45,5.06,6-.36,8.68-3.07,24.6-23.87,24.6-23.15,0-25.69-28.22-25.69-44.14,0-19,3.08-43.95,25.69-43.95,12.12,0,17.54,5.79,20.25,16.09,1.27,4.71,4.34,6.7,14.48,6.7,9.22,0,11.57-5.07,10.49-10.85C409.73,328.78,394,317,368.67,317c-36.89,2-50.46,28.21-50.46,65.11,0,36.18,14.29,65.3,51.37,65.3,35.27,0,47.75-25.5,46.49-56.62C415.7,381.05,412.45,375.27,399.25,375.27Z" transform="translate(-213.19 -42.5)"/><path class="cls-1" d="M509.05,321.12c-5.57,0-11.15,1.69-11.15,7.77v72.56c0,13.48-7.62,23.22-21.45,23.22s-21.27-9.74-21.27-23.22V328.89c0-6.08-5.57-7.77-11.15-7.77s-11.14,1.69-11.14,7.77v70.83c0,32.15,18.15,45.47,43.57,45.47,25.58,0,43.74-13.32,43.74-45.47V328.89C520.2,322.81,514.62,321.12,509.05,321.12Z" transform="translate(-213.19 -42.5)"/><path class="cls-1" d="M555.41,323.22c-5.53,0-11.06,1.68-11.06,7.71v104c0,6.2,5.53,7.88,11.06,7.88s11.23-1.68,11.23-7.88V330.93C566.64,324.9,560.94,323.22,555.41,323.22Z" transform="translate(-213.19 -42.5)"/><path class="cls-1" d="M630.26,321.39H606.09c-8.93,0-17.16,2.28-17.16,15.42v91.6c0,13.31,8.23,15.59,17.16,15.59h24.17c34.85,0,48.51-28.72,48.51-61.3S664.76,321.39,630.26,321.39Zm.92,100.32H616c-1.92,0-3-.7-3-3v-74c0-2.27,1-3,3-3h15.14c19,0,24.54,23,24.54,40S650.66,421.71,631.18,421.71Z" transform="translate(-213.19 -42.5)"/><path class="cls-1" d="M721.81,341.83h37.37c5.71,0,7.05-5.11,7.05-10.22s-1.51-10.22-7.05-10.22H713.1c-8.39,0-16.43,2.22-16.43,15V429c0,12.78,8,15,16.43,15h46.08c5.53,0,7.05-5.11,7.05-10.22s-1.34-10.22-7.05-10.22H721.81c-2,0-2.85-.68-2.85-2.89V390.13h34.58c5.62,0,7.15-5.11,7.15-10.22s-1.53-10.22-7.15-10.22H719v-25C719,342.51,719.8,341.83,721.81,341.83Z" transform="translate(-213.19 -42.5)"/></svg>