<svg id="Lag_1" data-name="Lag 1" xmlns="http://www.w3.org/2000/svg" viewBox="0 0 902.17 902.17"><defs><style>.cls-1{fill:#8f747a;}</style></defs><title>info</title><path class="cls-1" d="M506.9,53.48c-248.72,0-451.07,202.36-451.07,451.09S258.18,955.66,506.9,955.66,958,753.3,958,504.57,755.63,53.48,506.9,53.48Zm0,843C290.8,896.5,115,720.68,115,504.57S290.8,112.64,506.9,112.64,898.84,288.46,898.84,504.57,723,896.5,506.9,896.5Z" transform="translate(-55.83 -53.48)"/><path class="cls-1" d="M498.55,337.6a39.45,39.45,0,1,0-39.44-39.45A39.46,39.46,0,0,0,498.55,337.6Z" transform="translate(-55.83 -53.48)"/><path class="cls-1" d="M561.15,683.91H536.62V402.25A29.58,29.58,0,0,0,507,372.67H454.37c-15.84,0-29.52,12.16-30.22,28a29.33,29.33,0,0,0,29.29,30.65H478v252.6H451.44a26.22,26.22,0,0,0-23.19,13.61c-12,22.45,4,45,25.19,45H563.16a26.23,26.23,0,0,0,23.2-13.62C598.34,706.48,582.39,683.91,561.15,683.91Z" transform="translate(-55.83 -53.48)"/></svg>