<svg id="Lag_1" data-name="Lag 1" xmlns="http://www.w3.org/2000/svg" viewBox="0 0 939 939"><defs><style>.cls-1{fill:#f0eaee;}</style></defs><title>qr</title><path class="cls-1" d="M574.29,562.46A18.34,18.34,0,1,0,556,544.12,18.35,18.35,0,0,0,574.29,562.46Z" transform="translate(-32 -38)"/><path class="cls-1" d="M170.81,562.46a18.34,18.34,0,1,0-18.34-18.34A18.34,18.34,0,0,0,170.81,562.46Z" transform="translate(-32 -38)"/><path class="cls-1" d="M68.68,250.17V74.68H244.17c9.2,0,17.41-6.52,18.72-15.62A18.36,18.36,0,0,0,244.74,38H50.34A18.34,18.34,0,0,0,32,56.34v194.4a18.36,18.36,0,0,0,21.06,18.15C62.16,267.58,68.68,259.37,68.68,250.17Z" transform="translate(-32 -38)"/><path class="cls-1" d="M244.17,940.32H68.68V764.83c0-9.2-6.52-17.41-15.62-18.72A18.36,18.36,0,0,0,32,764.26v194.4A18.34,18.34,0,0,0,50.34,977h194.4a18.36,18.36,0,0,0,18.15-21.06C261.58,946.84,253.37,940.32,244.17,940.32Z" transform="translate(-32 -38)"/><path class="cls-1" d="M934.32,764.83V940.32H758.83c-9.2,0-17.41,6.52-18.72,15.62A18.36,18.36,0,0,0,758.26,977h194.4A18.34,18.34,0,0,0,971,958.66V764.26a18.36,18.36,0,0,0-21.06-18.15C940.84,747.42,934.32,755.63,934.32,764.83Z" transform="translate(-32 -38)"/><path class="cls-1" d="M952.66,38H758.83c-9.2,0-17.41,6.52-18.72,15.62a18.36,18.36,0,0,0,18.15,21.06H934.32V250.17c0,9.2,6.52,17.41,15.62,18.72A18.36,18.36,0,0,0,971,250.74V56.34A18.34,18.34,0,0,0,952.66,38Z" transform="translate(-32 -38)"/><path class="cls-1" d="M171.38,856h183.4a18.34,18.34,0,0,0,18.34-18.34V654.22a18.34,18.34,0,0,0-18.34-18.34H171.38A18.34,18.34,0,0,0,153,654.22v183.4A18.34,18.34,0,0,0,171.38,856Zm18.34-183.4H336.44V819.28H189.72Z" transform="translate(-32 -38)"/><path class="cls-1" d="M354.78,159H171.38A18.34,18.34,0,0,0,153,177.38v183.4a18.34,18.34,0,0,0,18.34,18.34h183.4a18.34,18.34,0,0,0,18.34-18.34V177.38A18.34,18.34,0,0,0,354.78,159Zm-18.34,183.4H189.72V195.72H336.44Z" transform="translate(-32 -38)"/><path class="cls-1" d="M831.62,159H648.22a18.34,18.34,0,0,0-18.34,18.34v183.4a18.34,18.34,0,0,0,18.34,18.34h183.4A18.34,18.34,0,0,0,850,360.78V177.38A18.34,18.34,0,0,0,831.62,159Zm-18.34,183.4H666.56V195.72H813.28Z" transform="translate(-32 -38)"/><path class="cls-1" d="M850,837.62V654.22a18.34,18.34,0,0,0-18.34-18.34H648.22a18.34,18.34,0,0,0-18.34,18.34v183.4A18.34,18.34,0,0,0,648.22,856h183.4A18.34,18.34,0,0,0,850,837.62Zm-36.68-18.34H666.56V672.56H813.28Z" transform="translate(-32 -38)"/><path class="cls-1" d="M281.42,709.24H244.74a18.34,18.34,0,0,0-18.34,18.34v36.68a18.34,18.34,0,0,0,18.34,18.34h36.68a18.34,18.34,0,0,0,18.34-18.34V727.58A18.34,18.34,0,0,0,281.42,709.24Z" transform="translate(-32 -38)"/><path class="cls-1" d="M244.74,305.76h36.68a18.34,18.34,0,0,0,18.34-18.34V250.74a18.34,18.34,0,0,0-18.34-18.34H244.74a18.34,18.34,0,0,0-18.34,18.34v36.68A18.34,18.34,0,0,0,244.74,305.76Z" transform="translate(-32 -38)"/><path class="cls-1" d="M721.58,305.76h36.68a18.34,18.34,0,0,0,18.34-18.34V250.74a18.34,18.34,0,0,0-18.34-18.34H721.58a18.34,18.34,0,0,0-18.34,18.34v36.68A18.34,18.34,0,0,0,721.58,305.76Z" transform="translate(-32 -38)"/><path class="cls-1" d="M721.58,782.6h36.68a18.34,18.34,0,0,0,18.34-18.34V727.58a18.34,18.34,0,0,0-18.34-18.34H721.58a18.34,18.34,0,0,0-18.34,18.34v36.68A18.34,18.34,0,0,0,721.58,782.6Z" transform="translate(-32 -38)"/><path class="cls-1" d="M245.31,562.52H483.16v91.13c0,9.19,6.52,17.41,15.62,18.71a18.35,18.35,0,0,0,21.06-18.14v-110a18.34,18.34,0,0,0-18.34-18.34H244.74A18.35,18.35,0,0,0,226.6,546.9C227.9,556,236.12,562.52,245.31,562.52Z" transform="translate(-32 -38)"/><path class="cls-1" d="M354.21,489.16a18.36,18.36,0,0,0,18.15-21.06c-1.31-9.1-9.53-15.62-18.72-15.62H171.38c-9.19,0-17.4,6.52-18.71,15.62a18.35,18.35,0,0,0,18.14,21.06Z" transform="translate(-32 -38)"/><path class="cls-1" d="M427.57,489.16h72.79c9.19,0,17.41-6.52,18.72-15.62a18.36,18.36,0,0,0-18.15-21.06H428.14c-9.19,0-17.41,6.52-18.71,15.62A18.35,18.35,0,0,0,427.57,489.16Z" transform="translate(-32 -38)"/><path class="cls-1" d="M430.86,159.24a18.35,18.35,0,0,0-21.06,18.14v183.4a18.34,18.34,0,0,0,18.34,18.34H556.52v91.7a18.34,18.34,0,0,0,18.34,18.34h72.79c9.19,0,17.41-6.52,18.71-15.62a18.35,18.35,0,0,0-18.14-21.06h-55v-91.7a18.34,18.34,0,0,0-18.34-18.34H446.48V178C446.48,168.76,440,160.54,430.86,159.24Z" transform="translate(-32 -38)"/><path class="cls-1" d="M831.05,452.48H721.58c-9.19,0-17.41,6.52-18.72,15.62A18.36,18.36,0,0,0,721,489.16H830.48c9.19,0,17.41-6.52,18.71-15.62A18.35,18.35,0,0,0,831.05,452.48Z" transform="translate(-32 -38)"/><path class="cls-1" d="M831.05,525.84H648.22c-9.19,0-17.41,6.52-18.71,15.62a18.35,18.35,0,0,0,18.14,21.06H830.48c9.19,0,17.41-6.52,18.71-15.62A18.35,18.35,0,0,0,831.05,525.84Z" transform="translate(-32 -38)"/><path class="cls-1" d="M501.5,709.24H428.14a18.34,18.34,0,0,0-18.34,18.34V837.05c0,9.19,6.52,17.41,15.62,18.71a18.35,18.35,0,0,0,21.06-18.14v-91.7h54.45c9.19,0,17.41-6.52,18.71-15.62A18.35,18.35,0,0,0,501.5,709.24Z" transform="translate(-32 -38)"/><path class="cls-1" d="M556.52,819.28H502.07c-9.19,0-17.41,6.52-18.71,15.62A18.35,18.35,0,0,0,501.5,856h73.36a18.34,18.34,0,0,0,18.34-18.34V618.11c0-9.19-6.52-17.41-15.62-18.72a18.36,18.36,0,0,0-21.06,18.15Z" transform="translate(-32 -38)"/><path class="cls-1" d="M593.2,287.42V178c0-9.19-6.52-17.41-15.62-18.71a18.35,18.35,0,0,0-21.06,18.14v91.7H502.07c-9.19,0-17.41,6.52-18.71,15.62a18.35,18.35,0,0,0,18.14,21.06h73.36A18.34,18.34,0,0,0,593.2,287.42Z" transform="translate(-32 -38)"/></svg>