<svg id="Lag_1" data-name="Lag 1" xmlns="http://www.w3.org/2000/svg" viewBox="0 0 901.28 901.28"><defs><style>.cls-1{fill:#f0eaee;}</style></defs><title>Søg</title><path class="cls-1" d="M311.57,281a33.29,33.29,0,0,0-47.08,0c-48.26,48.26-72,115.49-65.09,184.47a33.31,33.31,0,0,0,33.1,30c1.11,0,2.23-.06,3.34-.17a33.31,33.31,0,0,0,29.83-36.45c-4.91-49,11.83-96.68,45.9-130.75A33.29,33.29,0,0,0,311.57,281Z" transform="translate(-62.72 -75.9)"/><path class="cls-1" d="M443.44,75.9C233.51,75.9,62.72,246.68,62.72,456.61S233.51,837.32,443.44,837.32,824.15,666.53,824.15,456.61,653.36,75.9,443.44,75.9Zm0,694.82c-173.21,0-314.12-140.9-314.12-314.11S270.23,142.49,443.44,142.49,757.55,283.4,757.55,456.61,616.64,770.72,443.44,770.72Z" transform="translate(-62.72 -75.9)"/><path class="cls-1" d="M954.24,920.33l-242-242a33.3,33.3,0,1,0-47.09,47.09l242,242a33.29,33.29,0,1,0,47.08-47.09Z" transform="translate(-62.72 -75.9)"/></svg>